<svg id="visual" viewBox="0 0 540 960" width="540" height="960" xmlns="http://www.w3.org/2000/svg" xmlns:xlink="http://www.w3.org/1999/xlink" version="1.1"><rect x="0" y="0" width="540" height="960" fill="#001220"></rect><path d="M0 617L12.8 622.5C25.7 628 51.3 639 77 651.8C102.7 664.7 128.3 679.3 154 668.2C179.7 657 205.3 620 231.2 603.2C257 586.3 283 589.7 308.8 602C334.7 614.3 360.3 635.7 386 645C411.7 654.3 437.3 651.7 463 650.7C488.7 649.7 514.3 650.3 527.2 650.7L540 651L540 961L527.2 961C514.3 961 488.7 961 463 961C437.3 961 411.7 961 386 961C360.3 961 334.7 961 308.8 961C283 961 257 961 231.2 961C205.3 961 179.7 961 154 961C128.3 961 102.7 961 77 961C51.3 961 25.7 961 12.8 961L0 961Z" fill="#6600ff"></path><path d="M0 765L12.8 743.5C25.7 722 51.3 679 77 664C102.7 649 128.3 662 154 678.2C179.7 694.3 205.3 713.7 231.2 725.2C257 736.7 283 740.3 308.8 724.5C334.7 708.7 360.3 673.3 386 657.3C411.7 641.3 437.3 644.7 463 647.5C488.7 650.3 514.3 652.7 527.2 653.8L540 655L540 961L527.2 961C514.3 961 488.7 961 463 961C437.3 961 411.7 961 386 961C360.3 961 334.7 961 308.8 961C283 961 257 961 231.2 961C205.3 961 179.7 961 154 961C128.3 961 102.7 961 77 961C51.3 961 25.7 961 12.8 961L0 961Z" fill="#4f34ff"></path><path d="M0 777L12.8 764.8C25.7 752.7 51.3 728.3 77 733.7C102.7 739 128.3 774 154 791C179.7 808 205.3 807 231.2 803.5C257 800 283 794 308.8 780.3C334.7 766.7 360.3 745.3 386 748.2C411.7 751 437.3 778 463 779.5C488.7 781 514.3 757 527.2 745L540 733L540 961L527.2 961C514.3 961 488.7 961 463 961C437.3 961 411.7 961 386 961C360.3 961 334.7 961 308.8 961C283 961 257 961 231.2 961C205.3 961 179.7 961 154 961C128.3 961 102.7 961 77 961C51.3 961 25.7 961 12.8 961L0 961Z" fill="#3849ff"></path><path d="M0 784L12.8 798C25.7 812 51.3 840 77 843.2C102.7 846.3 128.3 824.7 154 816.8C179.7 809 205.3 815 231.2 813.7C257 812.3 283 803.7 308.8 805.7C334.7 807.7 360.3 820.3 386 824.3C411.7 828.3 437.3 823.7 463 825.3C488.7 827 514.3 835 527.2 839L540 843L540 961L527.2 961C514.3 961 488.7 961 463 961C437.3 961 411.7 961 386 961C360.3 961 334.7 961 308.8 961C283 961 257 961 231.2 961C205.3 961 179.7 961 154 961C128.3 961 102.7 961 77 961C51.3 961 25.7 961 12.8 961L0 961Z" fill="#2059ff"></path><path d="M0 856L12.8 866.3C25.7 876.7 51.3 897.3 77 907C102.7 916.7 128.3 915.3 154 906.8C179.7 898.3 205.3 882.7 231.2 876C257 869.3 283 871.7 308.8 879.3C334.7 887 360.3 900 386 906.3C411.7 912.7 437.3 912.3 463 906.7C488.7 901 514.3 890 527.2 884.5L540 879L540 961L527.2 961C514.3 961 488.7 961 463 961C437.3 961 411.7 961 386 961C360.3 961 334.7 961 308.8 961C283 961 257 961 231.2 961C205.3 961 179.7 961 154 961C128.3 961 102.7 961 77 961C51.3 961 25.7 961 12.8 961L0 961Z" fill="#0066ff"></path></svg>