<svg id="visual" viewBox="0 0 960 540" width="960" height="540" xmlns="http://www.w3.org/2000/svg" xmlns:xlink="http://www.w3.org/1999/xlink" version="1.1"><rect x="0" y="0" width="960" height="540" fill="#001220"></rect><path d="M0 347L22.8 350C45.7 353 91.3 359 137 366.2C182.7 373.3 228.3 381.7 274 375.5C319.7 369.3 365.3 348.7 411.2 339.2C457 329.7 503 331.3 548.8 338.2C594.7 345 640.3 357 686 362.3C731.7 367.7 777.3 366.3 823 365.8C868.7 365.3 914.3 365.7 937.2 365.8L960 366L960 541L937.2 541C914.3 541 868.7 541 823 541C777.3 541 731.7 541 686 541C640.3 541 594.7 541 548.8 541C503 541 457 541 411.2 541C365.3 541 319.7 541 274 541C228.3 541 182.7 541 137 541C91.3 541 45.7 541 22.8 541L0 541Z" fill="#6600ff"></path><path d="M0 430L22.8 417.8C45.7 405.7 91.3 381.3 137 372.8C182.7 364.3 228.3 371.7 274 380.8C319.7 390 365.3 401 411.2 407.5C457 414 503 416 548.8 407C594.7 398 640.3 378 686 369C731.7 360 777.3 362 823 363.7C868.7 365.3 914.3 366.7 937.2 367.3L960 368L960 541L937.2 541C914.3 541 868.7 541 823 541C777.3 541 731.7 541 686 541C640.3 541 594.7 541 548.8 541C503 541 457 541 411.2 541C365.3 541 319.7 541 274 541C228.3 541 182.7 541 137 541C91.3 541 45.7 541 22.8 541L0 541Z" fill="#4f34ff"></path><path d="M0 437L22.8 430.2C45.7 423.3 91.3 409.7 137 412.5C182.7 415.3 228.3 434.7 274 444.2C319.7 453.7 365.3 453.3 411.2 451.5C457 449.7 503 446.3 548.8 438.7C594.7 431 640.3 419 686 420.5C731.7 422 777.3 437 823 437.8C868.7 438.7 914.3 425.3 937.2 418.7L960 412L960 541L937.2 541C914.3 541 868.7 541 823 541C777.3 541 731.7 541 686 541C640.3 541 594.7 541 548.8 541C503 541 457 541 411.2 541C365.3 541 319.7 541 274 541C228.3 541 182.7 541 137 541C91.3 541 45.7 541 22.8 541L0 541Z" fill="#3849ff"></path><path d="M0 441L22.8 448.8C45.7 456.7 91.3 472.3 137 474C182.7 475.7 228.3 463.3 274 458.8C319.7 454.3 365.3 457.7 411.2 457C457 456.3 503 451.7 548.8 452.8C594.7 454 640.3 461 686 463.2C731.7 465.3 777.3 462.7 823 463.7C868.7 464.7 914.3 469.3 937.2 471.7L960 474L960 541L937.2 541C914.3 541 868.7 541 823 541C777.3 541 731.7 541 686 541C640.3 541 594.7 541 548.8 541C503 541 457 541 411.2 541C365.3 541 319.7 541 274 541C228.3 541 182.7 541 137 541C91.3 541 45.7 541 22.8 541L0 541Z" fill="#2059ff"></path><path d="M0 481L22.8 486.8C45.7 492.7 91.3 504.3 137 509.8C182.7 515.3 228.3 514.7 274 509.8C319.7 505 365.3 496 411.2 492.2C457 488.3 503 489.7 548.8 494C594.7 498.3 640.3 505.7 686 509.3C731.7 513 777.3 513 823 509.8C868.7 506.7 914.3 500.3 937.2 497.2L960 494L960 541L937.2 541C914.3 541 868.7 541 823 541C777.3 541 731.7 541 686 541C640.3 541 594.7 541 548.8 541C503 541 457 541 411.2 541C365.3 541 319.7 541 274 541C228.3 541 182.7 541 137 541C91.3 541 45.7 541 22.8 541L0 541Z" fill="#0066ff"></path></svg>